<svg width="82" height="83" viewBox="0 0 82 83" fill="none" xmlns="http://www.w3.org/2000/svg">
<path fill-rule="evenodd" clip-rule="evenodd" d="M40.9992 0.753906C18.3563 0.753906 0 19.0597 0 41.6398C0 64.2193 18.3563 82.5265 40.9992 82.5265C63.6424 82.5265 82 64.2193 82 41.6398C82 19.0592 63.6424 0.753906 40.9992 0.753906ZM41.1241 60.9289L40.8737 60.9283H23.3604C23.3604 48.1564 34.6087 48.1593 37.1049 44.8197L37.3905 43.2968C33.8837 41.5246 31.4081 37.2515 31.4081 32.2542C31.4081 25.6704 35.7028 20.3322 40.9991 20.3322C46.2956 20.3322 50.5904 25.6704 50.5904 32.2542C50.5904 37.2091 48.1587 41.4553 44.6986 43.2557L45.0239 44.9863C47.7624 48.164 58.6366 48.3712 58.6366 60.9289H41.1241Z" fill="white"/>
</svg>
