<svg width="12" height="12" viewBox="0 0 12 12" fill="none" xmlns="http://www.w3.org/2000/svg">
	<path d="M9.95111 1.29986H9.5896V0.905424C9.5896 0.405959 9.19549 0 8.71051 0C8.22521 0 7.83143 0.405959 7.83143 0.905424V1.29953H6.9293V0.905424C6.9293 0.405959 6.53519 0 6.05021 0C5.56524 0 5.17113 0.405959 5.17113 0.905424V1.29953H4.269V0.905424C4.269 0.405959 3.87489 0 3.38991 0C2.90493 0 2.51083 0.405959 2.51083 0.905424V1.29953H2.04923C1.2778 1.29953 0.649933 1.9274 0.649933 2.69882V10.6007C0.649933 11.3721 1.2778 12 2.04923 12H9.95111C10.7229 12 11.3504 11.3721 11.3504 10.6007V2.69882C11.3504 1.92773 10.7225 1.29986 9.95111 1.29986ZM8.3253 0.905424C8.3253 0.678574 8.49815 0.493868 8.71051 0.493868C8.92321 0.493868 9.09573 0.678574 9.09573 0.905424V2.51741C9.09573 2.74426 8.92321 2.92897 8.71051 2.92897C8.49815 2.92897 8.3253 2.74426 8.3253 2.51741V0.905424ZM5.665 0.905424C5.665 0.678574 5.83785 0.493868 6.05021 0.493868C6.26258 0.493868 6.43543 0.678574 6.43543 0.905424V2.51741C6.43543 2.74426 6.26258 2.92897 6.05021 2.92897C5.83785 2.92897 5.665 2.74426 5.665 2.51741V0.905424ZM3.00437 0.905424C3.00437 0.678574 3.17722 0.493868 3.38958 0.493868C3.60195 0.493868 3.7748 0.678574 3.7748 0.905424V2.51741C3.7748 2.74426 3.60195 2.92897 3.38958 2.92897C3.17722 2.92897 3.00437 2.74426 3.00437 2.51741V0.905424ZM10.5273 10.601C10.5273 10.9188 10.2688 11.1772 9.95111 11.1772H2.04923C1.7315 11.1772 1.47305 10.9188 1.47305 10.601V3.35764H10.5273V10.601Z" fill="#132c52"/>
	<path d="M3.72673 4.81543H2.21385V6.16171H3.72673V4.81543Z" fill="#132c52"/>
	<path d="M5.74632 4.81543H4.23311V6.16171H5.74632V4.81543Z" fill="#132c52"/>
	<path d="M7.7669 4.81543H6.25401V6.16171H7.7669V4.81543Z" fill="#132c52"/>
	<path d="M9.7865 4.81543H8.27328V6.16171H9.7865V4.81543Z" fill="#132c52"/>
	<path d="M3.72673 6.6123H2.21385V7.9576H3.72673V6.6123Z" fill="#132c52"/>
	<path d="M5.74632 6.6123H4.23311V7.9576H5.74632V6.6123Z" fill="#132c52"/>
	<path d="M7.7669 6.6123H6.25401V7.9576H7.7669V6.6123Z" fill="#132c52"/>
	<path d="M9.7865 6.6123H8.27328V7.9576H9.7865V6.6123Z" fill="#132c52"/>
	<path d="M3.72673 8.40918H2.21385V9.75447H3.72673V8.40918Z" fill="#132c52"/>
	<path d="M5.74632 8.40918H4.23311V9.75447H5.74632V8.40918Z" fill="#132c52"/>
	<path d="M7.7669 8.40918H6.25401V9.75447H7.7669V8.40918Z" fill="#132c52"/>
	<path d="M9.7865 8.40918H8.27328V9.75447H9.7865V8.40918Z" fill="#132c52"/>
</svg>