<svg width="15" height="17" fill="none" xmlns="http://www.w3.org/2000/svg"><g opacity=".6" fill="#132C52"><path d="M13.078 2.125h-2.922v-.531C10.156.714 9.443 0 8.562 0H6.438c-.88 0-1.594.714-1.594 1.594v.531H1.922c-.734 0-1.328.595-1.328 1.328v1.063c0 .293.238.53.531.53h12.75a.531.531 0 0 0 .531-.53V3.453c0-.733-.594-1.328-1.328-1.328zm-7.172-.531c0-.293.239-.532.532-.532h2.125c.292 0 .53.239.53.532v.531H5.907v-.531zM1.602 6.11c-.095 0-.17.079-.166.173l.438 9.199c.04.851.74 1.518 1.592 1.518h8.067c.853 0 1.552-.667 1.592-1.518l.438-9.199a.166.166 0 0 0-.165-.174H1.602zm8.023 1.327a.531.531 0 1 1 1.062 0v6.907a.531.531 0 1 1-1.062 0V7.438zm-2.657 0a.531.531 0 1 1 1.063 0v6.907a.531.531 0 1 1-1.063 0V7.438zm-2.656 0a.531.531 0 1 1 1.063 0v6.907a.531.531 0 1 1-1.063 0V7.438z"/></g></svg>