<svg width="18" height="13" viewBox="0 0 18 13" fill="none" xmlns="http://www.w3.org/2000/svg">
<path d="M0.191091 6.42751L2.66668 7.44984L2.14165 7.69453C1.99404 7.76981 1.92866 7.94516 1.99404 8.09771L2.7073 9.63023C2.74197 9.70551 2.80636 9.76495 2.88363 9.79269C2.95991 9.82538 3.04709 9.82538 3.12337 9.79269L8.55006 7.24775L8.61841 6.52558L8.71351 5.55971C8.72441 5.43093 8.83833 5.33682 8.96612 5.34871C9.04934 5.35564 9.12165 5.40715 9.15633 5.48442C9.17614 5.52009 9.18505 5.56169 9.18208 5.6033L8.55303 12.2683C8.6937 12.3713 8.87003 12.409 9.04042 12.3763C9.28016 12.3129 9.49314 12.0325 9.66947 11.5709L12.1867 4.07971L12.259 3.86672C12.2956 3.7419 12.4264 3.67057 12.5522 3.70723C12.677 3.74487 12.7484 3.87563 12.7117 4.00045C12.7087 4.0064 12.7077 4.01234 12.7058 4.0173L12.4601 4.7355L12.1837 5.55971L16.4335 3.56854C17.6609 2.99496 18.292 1.83394 17.868 0.9285C17.6272 0.454977 17.1666 0.133022 16.6386 0.0696211C16.0521 -0.0185454 15.4528 0.0735834 14.9198 0.33412L10.1073 2.57989L4.94118 0.562957C4.29033 0.31827 3.77421 0.324214 3.41263 0.585741C3.1095 0.83439 2.93713 1.20885 2.94406 1.60213C2.94703 1.7002 2.99756 1.79332 3.07879 1.84979L6.55888 4.23424L4.56375 5.17832L1.21937 4.34123C1.08266 4.30854 0.94001 4.36996 0.870666 4.49181L0.0405145 5.9837C-0.0446799 6.13527 0.00881426 6.32646 0.160381 6.41166C0.170288 6.4176 0.181185 6.42255 0.191091 6.42751Z" fill="#03B2D8"/>
</svg>
