<svg width="555" height="136" viewBox="0 0 555 136" fill="none" xmlns="http://www.w3.org/2000/svg">
<path d="M8.95069 133.224C59.4342 134.437 140.201 104.298 190.68 71.5594C274.946 16.9093 351.882 36.4812 423.81 52.7118C481.352 65.6963 520.994 44.8939 533.622 32.8696" stroke="white" strokeOpacity="0.35" stroke-dasharray="5 5"/>
<g opacity="0.55">
<g clip-path="url(#clip0)">
<path d="M537.133 30.9512L537.058 34.4289C537.053 34.6718 537.204 34.8903 537.434 34.9718C537.491 34.9918 537.55 35.002 537.609 35.0033C537.784 35.007 537.955 34.9282 538.066 34.7835L540.16 32.0588L537.133 30.9512Z" fill="#03B2D8"/>
<path d="M548.613 18.0902C548.443 17.9643 548.217 17.9429 548.027 18.0371L530.968 26.4862C530.766 26.5862 530.644 26.7966 530.655 27.0212C530.668 27.2465 530.813 27.4416 531.023 27.5189L535.679 29.2225L545.851 20.8959L537.922 30.0425L545.725 32.8975C545.783 32.9182 545.844 32.93 545.906 32.9314C546.008 32.9335 546.11 32.908 546.2 32.8559C546.344 32.772 546.444 32.6278 546.472 32.4641L548.832 18.6365C548.867 18.4272 548.783 18.2168 548.613 18.0902Z" fill="#03B2D8"/>
</g>
</g>
<defs>
<clipPath id="clip0">
<rect x="530.855" y="17.6055" width="18" height="18" transform="rotate(1.22711 530.855 17.6055)" fill="white"/>
</clipPath>
</defs>
</svg>
