<svg width="323" height="227" viewBox="0 0 323 227" fill="none" xmlns="http://www.w3.org/2000/svg">
<path opacity="0.65" d="M315.076 92.3908C305.214 54.2235 262.33 34.7964 216.169 50.7374C135.946 78.4416 133.811 151.065 17.4635 158.958" stroke="#BDBDBD" stroke-dasharray="5 5"/>
<g opacity="0.55">
<g clip-path="url(#clip0)">
<path d="M18.6094 160.436L21.0351 162.651C21.2045 162.806 21.2588 163.063 21.1702 163.289C21.1478 163.345 21.1177 163.396 21.0818 163.441C20.974 163.576 20.8123 163.653 20.6435 163.643L17.4627 163.44L18.6094 160.436Z" fill="#03B2D8"/>
<path d="M2.59056 160.684C2.61127 160.474 2.7389 160.29 2.92259 160.208L19.4338 152.872C19.629 152.785 19.8499 152.831 19.9961 152.986C20.1424 153.143 20.1846 153.38 20.105 153.589L18.3415 158.21L6.24737 160.436L17.4915 160.436L14.5358 168.181C14.5135 168.238 14.483 168.292 14.4453 168.339C14.3826 168.417 14.3011 168.477 14.2086 168.511C14.0604 168.565 13.899 168.547 13.7692 168.461L2.82673 161.206C2.6614 161.096 2.57037 160.895 2.59056 160.684Z" fill="#03B2D8"/>
</g>
</g>
<defs>
<clipPath id="clip0">
<rect width="17.6931" height="17.0001" transform="matrix(-0.624929 0.780682 0.73835 0.674418 13.4297 146.986)" fill="white"/>
</clipPath>
</defs>
</svg>
