<svg width="18" height="17" viewBox="0 0 18 17" fill="none" xmlns="http://www.w3.org/2000/svg">
<path opacity="0.4" fill-rule="evenodd" clip-rule="evenodd" d="M14.7147 9.36421C14.7147 9.02689 14.9944 8.7531 15.3392 8.7531C15.6841 8.7531 15.9639 9.02689 15.9639 9.36421V16.1365C15.9639 16.4739 15.6841 16.7476 15.3392 16.7476H10.6278C10.2829 16.7476 10.0032 16.4739 10.0032 16.1365V12.9211H8.43024V16.1365C8.43024 16.4739 8.15053 16.7476 7.80567 16.7476H3.09463C2.74977 16.7476 2.47007 16.4739 2.47007 16.1365V9.36421C2.47007 9.02689 2.74977 8.7531 3.09463 8.7531C3.43947 8.7531 3.71927 9.02689 3.71927 9.36421V15.5253H7.18103V12.3099C7.18103 11.9725 7.46083 11.6988 7.80567 11.6988H10.6278C10.9726 11.6988 11.2524 11.9725 11.2524 12.3099V15.5253H14.7147V9.36421ZM13.4443 3.6812C13.0995 3.6812 12.8197 3.40747 12.8197 3.07C12.8197 2.73254 13.0995 2.45889 13.4443 2.45889H15.3392C15.6841 2.45889 15.9639 2.73254 15.9639 3.07V4.92408C15.9639 5.26155 15.6841 5.53528 15.3392 5.53528C14.9944 5.53528 14.7147 5.26155 14.7147 4.92408V3.6812H13.4443ZM1.60089 9.28463L9.21672 2.28427L16.8325 9.28463C17.083 9.5153 17.4776 9.50346 17.7134 9.25841C17.9491 9.01316 17.9371 8.62712 17.6865 8.39633L9.64368 1.00351C9.40574 0.784061 9.03095 0.781313 8.78967 1.00351L0.746865 8.39633C0.496325 8.62712 0.484225 9.01316 0.720065 9.25841C0.955805 9.50346 1.35035 9.5153 1.60089 9.28463Z" fill="#484848"/>
</svg>
