<svg width="18" height="18" viewBox="0 0 18 18" fill="none" xmlns="http://www.w3.org/2000/svg">
<path opacity="0.3" fill-rule="evenodd" clip-rule="evenodd" d="M2.88208 4.14339H16.8707C17.3099 4.14339 17.6661 4.49953 17.6661 4.93877C17.6661 5.37805 17.3099 5.73435 16.8707 5.73435H2.88208L5.50132 8.35365C5.81206 8.66429 5.81206 9.16823 5.50132 9.47851C5.34606 9.63403 5.14242 9.71159 4.9389 9.71159C4.73534 9.71159 4.53168 9.63403 4.37642 9.47851L0.399138 5.50127C0.0885577 5.19067 0.0885577 4.68669 0.399138 4.37647L4.37642 0.398846C4.68708 0.0884056 5.19072 0.0884056 5.50132 0.398846C5.81206 0.709726 5.81206 1.21307 5.50132 1.52409L2.88208 4.14339ZM12.331 8.35365C12.6416 8.04283 13.1452 8.04283 13.4558 8.35365L17.4331 12.3308C17.7437 12.6417 17.7437 13.1452 17.4331 13.4561L13.4558 17.4331C13.3005 17.5886 13.097 17.6662 12.8935 17.6662C12.6898 17.6662 12.4862 17.5886 12.331 17.4334C12.0204 17.1228 12.0204 16.619 12.331 16.3084L14.9504 13.6889H0.961638C0.522338 13.6889 0.166138 13.3328 0.166138 12.8933C0.166138 12.4543 0.522338 12.0979 0.961638 12.0979H14.9504L12.331 9.47851C12.0202 9.16807 12.0202 8.66429 12.331 8.35365Z" fill="#282A36"/>
</svg>
