<svg width="78" height="78" viewBox="0 0 78 78" fill="none" xmlns="http://www.w3.org/2000/svg">
  <circle cx="39" cy="39" r="39" fill="white"/>
  <path fill-rule="evenodd" clip-rule="evenodd" d="M41.5326 19.0006C45.6026 19.535 49.4033 21.3274 52.4026 24.1268C55.402 26.9262 57.4497 30.5925 58.2591 34.6122L51.4586 33.8908C50.7997 32.083 49.7523 30.4414 48.3902 29.0812C46.6291 27.3277 44.4136 26.0993 41.9923 25.5339L41.5326 19.0006ZM36.1174 25.5339C33.9845 26.014 32.0046 27.0163 30.3559 28.4506C28.7071 29.8849 27.4413 31.7062 26.6722 33.7505L19.8516 34.4723C20.6807 30.4753 22.7379 26.8363 25.7362 24.0628C28.7346 21.2893 32.5246 19.5194 36.578 19L36.1174 25.5339ZM27.3935 44.6928C28.5277 46.792 30.2099 48.5452 32.2616 49.7661C34.3132 50.987 36.6576 51.6301 39.0457 51.627C40.7825 51.6332 42.5031 51.2944 44.1076 50.6303C45.7121 49.9663 47.1683 48.9902 48.3917 47.7589C49.1948 46.9651 49.8894 46.0689 50.4574 45.0934L56.3729 47.5388C54.7109 50.6923 52.2189 53.333 49.1654 55.1764C46.1119 57.0198 42.6127 57.996 39.0448 57.9998C36.4705 58.0046 33.9207 57.5007 31.5422 56.517C29.1637 55.5333 27.0036 54.0893 25.1862 52.2682C23.6796 50.7625 22.427 49.023 21.4771 47.1174L27.3935 44.6928Z" fill="#132C52"/>
  <path fill-rule="evenodd" clip-rule="evenodd" d="M35.125 34.5856C37.814 34.9199 40.534 34.9199 43.223 34.5856C43.0426 36.0281 43.223 36.0098 43.2951 36.5511C38.5338 37.6517 40.0488 37.7593 34.8363 36.5511C35.0346 35.7218 35.125 35.6856 35.125 34.5856ZM16.3867 37.3803V39.9046H21.7075C21.477 40.3593 21.3691 40.8662 21.3944 41.3752C21.4197 41.8842 21.5773 42.3779 21.8517 42.8076C22.9159 44.6828 25.4409 44.9533 26.7947 43.0419C27.6605 41.834 27.408 41.2207 27.2984 39.9043H31.2109C31.5355 43.8711 37.9384 48.7578 43.9619 44.268C45.044 43.4567 46.4507 41.5453 46.577 39.9043H50.7794C49.3545 45.8545 57.7412 45.7825 56.3707 39.9043H61.4027V37.6684C60.3565 37.6322 58.6791 37.291 57.7232 37.1454L47.9305 35.7576C46.2892 35.5234 47.1009 36.1904 46.2892 34.0447L45.0808 31.899C44.4441 31.0299 43.5927 30.3403 42.6097 29.8977C40.6621 28.8879 40.9325 29.8977 40.6262 27.4095C40.4634 26.129 40.1571 25.1019 40.1571 23.4062H37.6321C37.6321 24.9569 37.4517 25.7334 37.2543 27.2114C36.9476 29.3571 36.8935 29.2489 36.118 29.4473C35.4505 29.6096 34.1701 30.0606 32.8355 31.7374C31.7354 33.1258 31.7713 33.7028 31.2663 34.6585C30.7626 35.6504 31.3384 35.2897 28.1463 35.7224L16.3867 37.3803Z" fill="#03B2D8"/>
</svg>