<svg width="21" height="18" viewBox="0 0 21 18" fill="none" xmlns="http://www.w3.org/2000/svg">
<path fill-rule="evenodd" clip-rule="evenodd" d="M16.2654 0.560616L17.0859 2.05609C17.2502 2.3559 17.1438 2.73418 16.8482 2.90082L16.6125 3.03399L16.6092 3.0359C16.4466 3.12895 16.335 3.28285 16.2863 3.4559C16.2374 3.63045 16.2528 3.82277 16.3444 3.98963L16.3473 3.99512L18.0044 7.01513C18.021 7.04029 18.0356 7.06638 18.0484 7.09316C18.1412 7.24233 18.2852 7.34526 18.4455 7.39164C18.6064 7.43809 18.7822 7.42745 18.939 7.35011C18.964 7.33399 18.9899 7.31973 19.0165 7.30755L19.2076 7.19977C19.5032 7.03303 19.8761 7.14103 20.0404 7.44079L20.8611 8.93619C20.9919 9.17425 21.0156 9.44425 20.9478 9.68611C20.8796 9.92764 20.7193 10.1449 20.484 10.2778L7.03634 17.8701C6.80126 18.0029 6.5351 18.0265 6.29717 17.9579C6.05863 17.8888 5.84465 17.7263 5.71361 17.4876L4.89307 15.9918C4.72865 15.692 4.83509 15.3138 5.13062 15.1472L5.70072 14.8254C5.86505 14.7326 5.97778 14.5776 6.02669 14.4033C6.07582 14.2287 6.06036 14.0366 5.9688 13.8694L4.28347 10.7985C4.1922 10.6318 4.03934 10.5172 3.86758 10.4676C3.69545 10.4179 3.50575 10.4336 3.34116 10.5265L2.77114 10.8484C2.4756 11.015 2.10271 10.9072 1.93838 10.6073L1.11766 9.11179C0.98652 8.8731 0.963456 8.60331 1.03106 8.36207C1.09886 8.12035 1.25928 7.9033 1.49484 7.7702L14.9426 0.178022C15.1779 0.0450062 15.4436 0.0215972 15.6817 0.0901126C15.9199 0.158782 16.134 0.3217 16.2654 0.560616ZM9.22313 13.28L10.9483 12.3059C11.2439 12.1392 11.3503 11.761 11.186 11.4612C11.0216 11.1614 10.6487 11.0535 10.3531 11.2201L8.62793 12.1943C8.33239 12.3609 8.22595 12.7392 8.39028 13.039C8.55461 13.3388 8.92759 13.4467 9.22313 13.28ZM8.17781 11.3752L11.4172 9.54647C11.7127 9.37982 11.8191 9.00155 11.6548 8.70173C11.4905 8.40204 11.1176 8.29406 10.822 8.46071L7.58261 10.2894C7.28717 10.4561 7.18073 10.8343 7.34506 11.1341C7.50938 11.434 7.88225 11.5418 8.17781 11.3752ZM7.07813 9.37093L11.1285 7.08443C11.424 6.9177 11.5303 6.53936 11.366 6.23954C11.2017 5.93988 10.8288 5.83194 10.5333 5.99865L6.48293 8.28517C6.18739 8.45189 6.08105 8.83016 6.24538 9.12998C6.40968 9.42973 6.78257 9.53765 7.07813 9.37093ZM15.2365 10.3856C15.0723 10.0858 15.1786 9.70754 15.4742 9.5409C15.7697 9.37418 16.1426 9.4821 16.3069 9.78192L16.8597 10.7891C16.8758 10.8185 16.8893 10.8487 16.9004 10.8792L19.6682 9.31666L19.2531 8.56031C18.8758 8.69094 18.4767 8.69574 18.1097 8.58956C17.6406 8.45408 17.2202 8.13649 16.9625 7.6706L16.9591 7.66461L15.2987 4.63839C15.2776 4.6066 15.2595 4.57268 15.2444 4.5371C15.0135 4.08211 14.9766 3.57398 15.1053 3.11521C15.2102 2.74271 15.4244 2.40088 15.7327 2.14448L15.3176 1.38793L12.5488 2.95109C12.5571 2.96392 12.5649 2.97704 12.5723 2.99058L13.1251 3.9976C13.2894 4.29742 13.183 4.67575 12.8874 4.8424C12.5919 5.00898 12.219 4.90113 12.0547 4.60131L11.5019 3.59414C11.4947 3.58082 11.4878 3.56735 11.4816 3.55375L2.3105 8.73133L2.71068 9.46066L2.74596 9.44072C3.20849 9.17976 3.73234 9.1338 4.20355 9.26962C4.67486 9.40604 5.09647 9.72538 5.35387 10.1948L7.0392 13.2658C7.29641 13.7348 7.34201 14.2662 7.20773 14.744C7.07354 15.2223 6.75864 15.6499 6.29582 15.9112L6.26122 15.9307L6.66118 16.66L15.8439 11.4757C15.8239 11.45 15.8056 11.4223 15.7894 11.3927L15.2365 10.3856ZM13.1918 7.0071L13.7446 8.01412C13.9089 8.31394 14.2819 8.42185 14.5773 8.25521C14.873 8.08849 14.9793 7.71029 14.815 7.41053L14.2622 6.40345C14.0979 6.10363 13.725 5.99556 13.4295 6.16227C13.134 6.32901 13.0275 6.70728 13.1918 7.0071Z" fill="#333333"/>
</svg>
