<svg width="16" height="16" fill="none" xmlns="http://www.w3.org/2000/svg"><path d="M4.437 4.469h4.344V0H3.97v4c0 .258.21.469.468.469zM10.781 4V0H9.72v4.469h.594a.47.47 0 0 0 .468-.47zM3.969 16h6.812v-5.031H3.97v5.03z" fill="#718097"/><path d="M15.998 3.954a.47.47 0 0 0-.104-.25c-.023-.03.215.211-3.563-3.567A.472.472 0 0 0 12 0h-.281v4c0 .775-.631 1.406-1.407 1.406H4.437c-.775 0-1.406-.63-1.406-1.406V0H1.406C.631 0 0 .63 0 1.406v13.188C0 15.369.63 16 1.406 16h1.625V9.437c0-.775.631-1.406 1.406-1.406h5.875c.776 0 1.407.631 1.407 1.406V16h2.875c.775 0 1.406-.631 1.406-1.406C16 3.213 16 3.99 15.998 3.954z" fill="#718097"/><path d="M10.312 8.969H4.437a.47.47 0 0 0-.468.468v.594h6.812v-.594a.47.47 0 0 0-.469-.468z" fill="#718097"/></svg>