<svg width="30" height="26" viewBox="0 0 30 26" fill="none" xmlns="http://www.w3.org/2000/svg">
  <path d="M10.3845 11.8472H6.34602C5.86522 11.8472 5.45647 11.6789 5.1199 11.3424C4.78351 11.0058 4.6151 10.5972 4.6151 10.1162V9.53957C4.6151 8.26545 5.0659 7.1778 5.96745 6.27625C6.86894 5.37501 7.95677 4.92421 9.23076 4.92421H10.3845C10.697 4.92421 10.9673 4.80997 11.1958 4.5817C11.4241 4.35329 11.5383 4.08296 11.5383 3.77045V1.46254C11.5383 1.15009 11.424 0.879507 11.1958 0.651104C10.9674 0.423017 10.697 0.308594 10.3845 0.308594H9.23076C7.98064 0.308594 6.78799 0.552216 5.65203 1.03876C4.51621 1.52563 3.53377 2.18375 2.70433 3.01319C1.87496 3.84224 1.21703 4.82475 0.730232 5.9607C0.243432 7.09653 0 8.28951 0 9.5395V22.2315C0 23.1936 0.336384 24.0104 1.00947 24.6838C1.68261 25.3567 2.50012 25.6932 3.46159 25.6932H10.385C11.3464 25.6932 12.1636 25.3567 12.8368 24.6838C13.5098 24.0104 13.8464 23.1936 13.8464 22.2315V15.3088C13.8464 14.3469 13.5098 13.53 12.8364 12.8566C12.1635 12.1837 11.3459 11.8472 10.3845 11.8472Z" fill="#03B2D8"/>
  <path d="M28.9891 12.8566C28.3162 12.1837 27.4988 11.8472 26.5372 11.8472H22.4987C22.0182 11.8472 21.6091 11.6789 21.2731 11.3424C20.9364 11.0058 20.7683 10.5972 20.7683 10.1162V9.53957C20.7683 8.26545 21.2191 7.1778 22.1202 6.27625C23.0213 5.37501 24.1091 4.92421 25.3837 4.92421H26.5372C26.8498 4.92421 27.1203 4.80997 27.3486 4.5817C27.5767 4.35329 27.6913 4.08296 27.6913 3.77045V1.46254C27.6913 1.15009 27.5768 0.879507 27.3486 0.651104C27.1203 0.423017 26.8498 0.308594 26.5372 0.308594H25.3837C24.1329 0.308594 22.9405 0.552216 21.8043 1.03876C20.6686 1.52563 19.6865 2.18375 18.8571 3.01319C18.0276 3.84224 17.3694 4.82475 16.8828 5.9607C16.3961 7.09653 16.1523 8.28951 16.1523 9.5395V22.2315C16.1523 23.1936 16.489 24.0104 17.1619 24.6838C17.8349 25.3567 18.6522 25.6932 19.6138 25.6932H26.5368C27.4985 25.6932 28.3157 25.3567 28.9886 24.6838C29.662 24.0104 29.998 23.1936 29.998 22.2315V15.3088C29.9981 14.3468 29.662 13.53 28.9891 12.8566Z" fill="#03B2D8"/>
</svg>