<svg width="21" height="18" viewBox="0 0 21 18" fill="none" xmlns="http://www.w3.org/2000/svg">
<path d="M6.22 9.42C7.02 9.7 7.64 10.16 8.08 10.8C8.52 11.44 8.74 12.22 8.74 13.14C8.74 14.34 8.36 15.32 7.6 16.08C6.84 16.84 5.9 17.22 4.78 17.22C3.62 17.22 2.66 16.84 1.9 16.08C1.14 15.28 0.76 14.3 0.76 13.14C0.76 12.58 0.82 12.02 0.94 11.46C1.1 10.86 1.4 10 1.84 8.88L4.66 0.479997H8.44L6.22 9.42ZM17.56 9.42C18.36 9.7 18.98 10.16 19.42 10.8C19.86 11.44 20.08 12.22 20.08 13.14C20.08 14.34 19.7 15.32 18.94 16.08C18.18 16.84 17.24 17.22 16.12 17.22C14.96 17.22 14 16.84 13.24 16.08C12.48 15.28 12.1 14.3 12.1 13.14C12.1 12.58 12.16 12.02 12.28 11.46C12.44 10.86 12.74 10 13.18 8.88L16 0.479997H19.78L17.56 9.42Z" fill="#E0E0E0"/>
</svg>
