<svg width="18" height="18" viewBox="0 0 18 18" fill="none" xmlns="http://www.w3.org/2000/svg">
<path opacity="0.4" fill-rule="evenodd" clip-rule="evenodd" d="M14.5188 7.81251L14.4758 7.79693C14.3068 7.73622 14.1807 7.60686 14.1168 7.45023L13.8241 6.73779C13.7579 6.57531 13.7645 6.40027 13.8291 6.25097L13.8288 6.25075L13.8607 6.17743C14.5593 4.56205 14.7213 4.66115 14.6723 4.61011L14.6665 4.60421L14.6653 4.60533L14.6652 4.60527L14.64 4.57798L13.6069 3.55044C13.4543 3.60156 13.0542 3.76347 11.9398 4.2781L11.9082 4.29142L11.8673 4.31023C11.7114 4.38109 11.5414 4.37959 11.3944 4.31946L11.3942 4.3199L10.6733 4.02382C10.5132 3.95847 10.3954 3.83108 10.3359 3.67966H10.3358L10.3068 3.60662C9.93324 2.66369 9.72152 2.17 9.58762 1.92251H8.08902C8.00444 1.92251 8.21204 1.92257 7.59856 3.59569L7.59588 3.60268L7.59608 3.6029L7.56746 3.67832C7.5047 3.84434 7.3793 3.96664 7.22928 4.02853L7.22996 4.02981L6.5128 4.32794C6.346 4.39673 6.1667 4.38446 6.01688 4.30981L5.98522 4.29649L5.965 4.28753C5.39708 4.04355 4.94304 3.85787 4.60564 3.73218L4.60364 3.7314L4.60326 3.73218C4.4456 3.67324 4.33002 3.63124 4.2564 3.60627L3.32934 4.5299C3.41764 4.79969 3.62726 5.28723 4.04164 6.17877C4.04678 6.18984 4.05154 6.20091 4.05584 6.2122L4.07578 6.25556C4.1513 6.42008 4.1495 6.60125 4.0856 6.75642L4.0876 6.75726L3.79444 7.46904C3.7213 7.64683 3.57634 7.77148 3.4084 7.82314L3.38036 7.83415C2.4408 8.20404 1.94422 8.41601 1.68786 8.5539V10.0406C1.68786 10.1328 1.68816 9.91029 3.36728 10.5234L3.36776 10.5219L3.44254 10.5488C3.62326 10.6137 3.75486 10.7572 3.8137 10.9282L4.09246 11.6027C4.16018 11.7667 4.1533 11.9439 4.08732 12.0946L4.0877 12.0947L4.05736 12.1642L4.05842 12.1647C3.34764 13.8089 3.18828 13.6736 3.24808 13.7343L3.25142 13.7375L3.25256 13.7364L3.25284 13.7366C3.2619 13.7459 3.2704 13.7554 3.27888 13.7651L4.3097 14.7933C4.46144 14.7426 4.86112 14.5811 5.97854 14.0658L6.00668 14.0538L6.0412 14.0371C6.19932 13.9618 6.37318 13.9621 6.52356 14.0233L6.52386 14.0226L7.2453 14.32C7.40734 14.3863 7.52598 14.5157 7.58482 14.6691L7.5852 14.6691L7.61342 14.7426L7.6181 14.7555C7.98736 15.686 8.19764 16.1749 8.33078 16.4211H9.83024C9.91694 16.4211 9.70742 16.4209 10.3215 14.7465L10.3231 14.7422L10.3215 14.7417L10.3499 14.6661C10.4169 14.4867 10.5568 14.3574 10.7222 14.2999L11.4107 14.0162C11.5622 13.9544 11.7241 13.959 11.8644 14.017L11.8647 14.0162L11.9331 14.0445C11.9499 14.0514 11.9663 14.0591 11.982 14.0674C12.5255 14.3013 12.9701 14.4828 13.312 14.6107C13.4718 14.6705 13.5891 14.7132 13.6631 14.7382L14.7207 13.6838L14.7195 13.6826L14.7198 13.6823C14.7847 13.6162 14.6276 13.7761 13.8769 12.1654L13.8625 12.1318L13.8423 12.0876C13.7667 11.9228 13.7685 11.7413 13.8327 11.5857L14.1253 10.8771C14.1914 10.7172 14.3161 10.6002 14.4633 10.5415L14.4629 10.5403L14.5329 10.5125L14.5647 10.501C15.4872 10.1357 15.9767 9.92581 16.231 9.78861V8.30208C16.231 8.20685 16.231 8.43653 14.5483 7.82399L14.5188 7.81251ZM8.95944 12.4994C8.04868 12.4994 7.221 12.1269 6.6199 11.5262C6.0166 10.9232 5.64266 10.0901 5.64266 9.17214C5.64266 8.25408 6.0163 7.42153 6.6197 6.81915C7.2207 6.2186 8.04888 5.84653 8.95944 5.84653C9.86964 5.84653 10.6975 6.2186 11.2984 6.81915C11.9014 7.42181 12.2753 8.25416 12.2753 9.17214C12.2753 10.0901 11.9014 10.9231 11.2981 11.5262C10.6973 12.1269 9.86972 12.4994 8.95944 12.4994ZM7.47104 10.6441C7.09378 10.2671 6.85984 9.74603 6.85984 9.17214C6.85984 8.5983 7.09358 8.07785 7.47086 7.70112C7.85012 7.32227 8.37684 7.08738 8.95944 7.08738C9.54166 7.08738 10.068 7.32227 10.4473 7.70112C10.8243 8.07805 11.058 8.59844 11.058 9.17214C11.058 9.74603 10.8242 10.267 10.447 10.6441C10.0679 11.0233 9.54138 11.2585 8.95944 11.2585C8.37704 11.2585 7.85042 11.0234 7.47104 10.6441ZM15.0464 6.50666L15.1342 6.72074C17.4474 7.57331 17.4482 7.7912 17.4482 8.30208V9.97034C17.4482 10.2805 17.4479 10.497 16.9242 10.8105C16.9089 10.8213 16.8928 10.8316 16.8762 10.8411C16.61 10.9939 16.1085 11.2144 15.1431 11.5984L15.0555 11.8102C16.0858 14.0436 15.9341 14.1992 15.5804 14.5597L15.5801 14.5599L15.5789 14.5587L15.573 14.5648L14.3868 15.7473C14.3032 15.8307 14.1979 15.8964 14.0885 15.9398C13.9812 15.9821 13.8635 16.0065 13.7558 16.0065C13.5961 16.0065 13.3073 15.9286 12.8936 15.7738C12.5903 15.6605 12.1696 15.4884 11.6339 15.2591L11.391 15.3594C10.5362 17.6615 10.3242 17.6618 9.83024 17.6618H8.15884C7.85404 17.6618 7.6387 17.6618 7.31178 17.095C7.15462 16.822 6.9325 16.322 6.55228 15.3692L6.3129 15.2707C4.59048 16.0572 4.30694 16.0575 4.21206 16.0575C4.10066 16.0575 3.98364 16.0324 3.87826 15.9906C3.7706 15.9472 3.66598 15.8811 3.58292 15.7994L3.5831 15.7993L3.57814 15.7946L2.4302 14.6495C2.41714 14.6383 2.40446 14.6266 2.39216 14.614L2.39196 14.6138L2.39302 14.6124C2.03576 14.2502 1.89968 14.1076 2.8729 11.8352L2.78508 11.6227C0.471263 10.7672 0.470703 10.5488 0.470703 10.0406V8.37145C0.470703 8.05034 0.470703 7.82928 1.04232 7.50161C1.3083 7.34913 1.8088 7.1299 2.77162 6.74831L2.86136 6.53033C2.4364 5.60995 2.22946 5.10958 2.14324 4.80998C1.95862 4.16946 2.11892 4.00753 2.3459 3.77962L2.34838 3.77709L3.53266 2.59713C3.61592 2.51394 3.72072 2.44747 3.82858 2.40455L3.82878 2.40539L3.83096 2.40455C3.93692 2.36253 4.05356 2.33785 4.16266 2.33785C4.32248 2.33785 4.61022 2.41526 5.02172 2.56901L5.02144 2.56971C5.33472 2.6866 5.75682 2.85866 6.28534 3.08398L6.5292 2.9826C7.38378 0.68192 7.60932 0.681641 8.08902 0.681641H9.75996C10.0647 0.681641 10.2802 0.68186 10.6067 1.2487C10.7637 1.5216 10.9854 2.02155 11.3652 2.97365L11.6061 3.07249C13.3265 2.28626 13.6103 2.28618 13.7058 2.28618C13.8191 2.28618 13.9371 2.31099 14.0416 2.35309L14.0414 2.35379C14.1493 2.39763 14.2534 2.46446 14.3355 2.54645L15.4876 3.69207C15.5006 3.7035 15.5135 3.71526 15.5259 3.72787L15.526 3.72809L15.5248 3.72922C15.8715 4.07965 16.0196 4.23354 15.0464 6.50666ZM6.00668 14.0538C6.0186 14.0488 6.0309 14.0446 6.04282 14.0407L6.00668 14.0538Z" fill="#484848"/>
</svg>
