<svg width="190" height="183" viewBox="0 0 190 183" fill="none" xmlns="http://www.w3.org/2000/svg">
<path opacity="0.2" d="M3.08991 165.033C24.8148 167.382 71.0141 164.267 82.0126 133.009C95.7607 93.936 126.234 91.0689 156.159 89.424C186.083 87.779 194.938 55.0248 174.66 28.682" stroke="white" stroke-dasharray="5 5"/>
<g opacity="0.55">
<g clip-path="url(#clip0)">
<path d="M173.332 28.4043L173.513 31.345C173.526 31.5504 173.405 31.7405 173.214 31.8172C173.166 31.836 173.116 31.8467 173.067 31.8498C172.918 31.8589 172.771 31.798 172.672 31.6793L170.808 29.4443L173.332 28.4043Z" fill="#03B2D8"/>
<path d="M163.179 17.9088C163.319 17.7965 163.51 17.7707 163.673 17.8441L178.398 24.4162C178.572 24.4939 178.682 24.6679 178.68 24.8583C178.677 25.0494 178.561 25.2195 178.385 25.2921L174.503 26.8917L165.612 20.1897L172.633 27.6617L166.126 30.3425C166.077 30.362 166.026 30.3741 165.974 30.3773C165.888 30.3826 165.801 30.3644 165.722 30.3234C165.597 30.2573 165.508 30.1387 165.478 30.0011L163.013 18.3786C162.976 18.2026 163.04 18.0218 163.179 17.9088Z" fill="#03B2D8"/>
</g>
</g>
<g opacity="0.55">
<g clip-path="url(#clip1)">
<path d="M166.359 63.4531L166.54 66.3938C166.553 66.5992 166.432 66.7893 166.241 66.866C166.193 66.8849 166.144 66.8956 166.094 66.8986C165.946 66.9077 165.798 66.8468 165.699 66.7282L163.835 64.4931L166.359 63.4531Z" fill="#03B2D8"/>
<path d="M156.207 52.9576C156.346 52.8453 156.537 52.8196 156.7 52.8929L171.425 59.465C171.599 59.5428 171.71 59.7167 171.707 59.9072C171.705 60.0983 171.588 60.2683 171.413 60.3409L167.53 61.9405L158.64 55.2385L165.66 62.7105L159.153 65.3913C159.105 65.4109 159.053 65.4229 159.001 65.4261C158.915 65.4314 158.828 65.4132 158.75 65.3722C158.625 65.3061 158.535 65.1875 158.506 65.0499L156.04 53.4274C156.003 53.2515 156.067 53.0706 156.207 52.9576Z" fill="#03B2D8"/>
</g>
</g>
<path opacity="0.2" d="M2.20975 162.934C1.28101 142.813 8.09821 100.811 42.797 93.77C86.1704 84.9688 112.161 143.943 151.968 114.665C175.383 97.4444 171.731 72.0752 166.241 62.0013" stroke="white" stroke-dasharray="5 5"/>
<defs>
<clipPath id="clip0">
<rect width="15.2459" height="15.2459" transform="matrix(-0.998112 0.0614212 0.0614212 0.998112 178.191 16.8965)" fill="white"/>
</clipPath>
<clipPath id="clip1">
<rect width="15.2459" height="15.2459" transform="matrix(-0.998112 0.0614212 0.0614212 0.998112 171.219 51.9453)" fill="white"/>
</clipPath>
</defs>
</svg>
