<svg width="27" height="26" viewBox="0 0 27 26" fill="none" xmlns="http://www.w3.org/2000/svg">
<path d="M0 13C0 5.8203 5.8203 0 13 0H14C21.1797 0 27 5.8203 27 13C27 20.1797 21.1797 26 14 26H13C5.8203 26 0 20.1797 0 13Z" fill="white"/>
<path d="M16.4104 6C16.4418 6 16.4731 6 16.5062 6C16.583 6.94922 16.2207 7.65847 15.7804 8.17209C15.3483 8.68217 14.7567 9.17687 13.7998 9.10181C13.736 8.16618 14.0989 7.50953 14.5386 6.99709C14.9464 6.51953 15.6941 6.09457 16.4104 6Z" fill="#1F1F20"/>
<path d="M19.3064 15.8818C19.3064 15.8912 19.3064 15.8995 19.3064 15.9083C19.0374 16.7228 18.6538 17.4208 18.1857 18.0686C17.7584 18.6567 17.2347 19.4481 16.2997 19.4481C15.4918 19.4481 14.9551 18.9286 14.127 18.9144C13.2511 18.9002 12.7694 19.3488 11.9685 19.4617C11.8769 19.4617 11.7853 19.4617 11.6955 19.4617C11.1074 19.3766 10.6328 18.9109 10.287 18.4912C9.26745 17.2512 8.47959 15.6495 8.33301 13.5997C8.33301 13.3988 8.33301 13.1984 8.33301 12.9975C8.39507 11.5305 9.10787 10.3377 10.0553 9.7597C10.5553 9.45236 11.2427 9.19052 12.0081 9.30755C12.3362 9.35838 12.6713 9.47068 12.965 9.5818C13.2434 9.68878 13.5915 9.8785 13.9213 9.86845C14.1448 9.86195 14.367 9.74552 14.5922 9.66336C15.2518 9.42517 15.8984 9.15211 16.7507 9.28036C17.775 9.43522 18.5019 9.89032 18.9511 10.5925C18.0847 11.1439 17.3996 11.9749 17.5167 13.394C17.6207 14.6831 18.3701 15.4373 19.3064 15.8818Z" fill="#1F1F20"/>
</svg>
