<svg width="26" height="26" viewBox="0 0 26 26" fill="none" xmlns="http://www.w3.org/2000/svg">
<rect width="26" height="26" rx="13" fill="white"/>
<path d="M9.15502 12.7311C9.15502 12.0642 9.33877 11.4394 9.65801 10.9044V8.63525H7.38881C6.48819 9.80493 6 11.2304 6 12.7311C6 14.2318 6.48819 15.6573 7.38881 16.827H9.65801V14.5578C9.33877 14.0228 9.15502 13.3981 9.15502 12.7311Z" fill="#DC4C41"/>
<path d="M12.7306 16.3067L11.1531 17.8842L12.7306 19.4617C14.2313 19.4617 15.6568 18.9736 16.8265 18.0729V15.8062H14.5597C14.02 16.1265 13.3926 16.3067 12.7306 16.3067Z" fill="#DC4C41"/>
<path d="M9.65836 14.5581L7.38916 16.8273C7.56747 17.0589 7.76164 17.2807 7.97173 17.4908C9.243 18.762 10.9332 19.4621 12.7311 19.4621V16.3071C11.4264 16.3071 10.2828 15.6046 9.65836 14.5581Z" fill="#DC4C41"/>
<path d="M19.4614 12.7307C19.4614 12.3212 19.4244 11.9109 19.3512 11.5114L19.292 11.188H12.7307V14.343H15.9239C15.6138 14.9598 15.137 15.4631 14.5598 15.8058L16.8266 18.0726C17.0581 17.8943 17.2799 17.7001 17.49 17.49C18.7613 16.2187 19.4614 14.5285 19.4614 12.7307Z" fill="#DC4C41"/>
<path d="M15.259 10.2023L15.5378 10.4812L17.7688 8.25024L17.4899 7.97139C16.2187 6.70013 14.5284 6 12.7306 6L11.1531 7.57751L12.7306 9.15502C13.6857 9.15502 14.5836 9.52695 15.259 10.2023Z" fill="#DC4C41"/>
<path d="M12.7311 9.15502V6C10.9332 6 9.24302 6.70013 7.97173 7.97136C7.76164 8.18146 7.56747 8.40323 7.38916 8.63484L9.65836 10.904C10.2829 9.85754 11.4264 9.15502 12.7311 9.15502Z" fill="#DC4C41"/>
</svg>
