<svg width="26" height="26" viewBox="0 0 26 26" fill="none" xmlns="http://www.w3.org/2000/svg">
<path d="M13 5.28125C15.1285 5.28125 16.8594 7.01212 16.8594 9.14062C16.8594 11.2793 15.1316 13 13 13C10.8302 13 9.14062 11.2469 9.14062 9.14062C9.14062 7.01212 10.8715 5.28125 13 5.28125Z" fill="transparent"/>
<path d="M13 0C18.0404 0 22.1406 4.10018 22.1406 9.14062C22.1406 10.8433 21.669 12.5051 20.7771 13.9468L13.5207 25.6396C13.2198 26.1255 12.5104 26.1181 12.2189 25.6292L5.1477 13.8233C4.30569 12.4122 3.85938 10.7927 3.85938 9.14062C3.85938 4.10018 7.95955 0 13 0ZM13 13.7211C15.5566 13.7211 17.5805 11.6401 17.5805 9.14062C17.5805 6.6204 15.5202 4.56016 13 4.56016C10.4798 4.56016 8.41953 6.6204 8.41953 9.14062C8.41953 11.6181 10.4162 13.7211 13 13.7211Z" fill="#03B2D8"/>
</svg>
