<svg xmlns="http://www.w3.org/2000/svg" width="112.792" height="112.479"><linearGradient id="a" gradientUnits="userSpaceOnUse" x1="82.228" y1="68.025" x2="100.746" y2="51.766"><stop offset="0" stop-color="#1b4f9d"/><stop offset="1" stop-color="#d2dae5"/></linearGradient><path d="M71.67 64.461s10.937 3.226 18.323 4.548c0 0 18.038-6.573 16.651-11.97a4.705 4.705 0 00-.037-.127c-1.709-5.419-2.065-4-2.065-4l-5.225-.064S96.35 57.816 71.67 64.461z" fill="url(#a)"/><path d="M6.279 46.202s57.777-1.935 75.004-2.71c0 0 22.26-2.709 25.356 13.549 0 0-.678-5.903-18.001-4.355-17.324 1.549-71.713.291-82.359-6.484z" fill="#cf0012"/></svg>