<svg width="12" height="13" viewBox="0 0 12 13" fill="none" xmlns="http://www.w3.org/2000/svg">
<g clip-path="url(#clip0)">
<path d="M9.95108 1.52252H9.58957V1.12808C9.58957 0.628616 9.19546 0.222656 8.71048 0.222656C8.22518 0.222656 7.8314 0.628616 7.8314 1.12808V1.52219H6.92927V1.12808C6.92927 0.628616 6.53516 0.222656 6.05018 0.222656C5.5652 0.222656 5.1711 0.628616 5.1711 1.12808V1.52219H4.26897V1.12808C4.26897 0.628616 3.87486 0.222656 3.38988 0.222656C2.9049 0.222656 2.5108 0.628616 2.5108 1.12808V1.52219H2.04919C1.27777 1.52219 0.649902 2.15006 0.649902 2.92148V10.8234C0.649902 11.5948 1.27777 12.2227 2.04919 12.2227H9.95108C10.7228 12.2227 11.3504 11.5948 11.3504 10.8234V2.92148C11.3504 2.15039 10.7225 1.52252 9.95108 1.52252ZM8.32527 1.12808C8.32527 0.901231 8.49812 0.716524 8.71048 0.716524C8.92318 0.716524 9.0957 0.901231 9.0957 1.12808V2.74007C9.0957 2.96692 8.92318 3.15162 8.71048 3.15162C8.49812 3.15162 8.32527 2.96692 8.32527 2.74007V1.12808ZM5.66497 1.12808C5.66497 0.901231 5.83782 0.716524 6.05018 0.716524C6.26255 0.716524 6.4354 0.901231 6.4354 1.12808V2.74007C6.4354 2.96692 6.26255 3.15162 6.05018 3.15162C5.83782 3.15162 5.66497 2.96692 5.66497 2.74007V1.12808ZM3.00434 1.12808C3.00434 0.901231 3.17719 0.716524 3.38955 0.716524C3.60192 0.716524 3.77477 0.901231 3.77477 1.12808V2.74007C3.77477 2.96692 3.60192 3.15162 3.38955 3.15162C3.17719 3.15162 3.00434 2.96692 3.00434 2.74007V1.12808ZM10.5273 10.8237C10.5273 11.1414 10.2688 11.3999 9.95108 11.3999H2.04919C1.73147 11.3999 1.47302 11.1414 1.47302 10.8237V3.5803H10.5273V10.8237Z" fill="#03B2D8"/>
<path d="M3.72675 5.03821H2.21387V6.38449H3.72675V5.03821Z" fill="#03B2D8"/>
<path d="M5.74636 5.03821H4.23315V6.38449H5.74636V5.03821Z" fill="#03B2D8"/>
<path d="M7.76679 5.03821H6.25391V6.38449H7.76679V5.03821Z" fill="#03B2D8"/>
<path d="M9.7864 5.03821H8.27319V6.38449H9.7864V5.03821Z" fill="#03B2D8"/>
<path d="M3.72675 6.83521H2.21387V8.1805H3.72675V6.83521Z" fill="#03B2D8"/>
<path d="M5.74636 6.83521H4.23315V8.1805H5.74636V6.83521Z" fill="#03B2D8"/>
<path d="M7.76679 6.83521H6.25391V8.1805H7.76679V6.83521Z" fill="#03B2D8"/>
<path d="M9.7864 6.83521H8.27319V8.1805H9.7864V6.83521Z" fill="#03B2D8"/>
<path d="M3.72675 8.63153H2.21387V9.97683H3.72675V8.63153Z" fill="#03B2D8"/>
<path d="M5.74636 8.63153H4.23315V9.97683H5.74636V8.63153Z" fill="#03B2D8"/>
<path d="M7.76679 8.63153H6.25391V9.97683H7.76679V8.63153Z" fill="#03B2D8"/>
<path d="M9.7864 8.63153H8.27319V9.97683H9.7864V8.63153Z" fill="#03B2D8"/>
</g>
<defs>
<clipPath id="clip0">
<rect width="12" height="12" fill="white" transform="translate(0 0.222656)"/>
</clipPath>
</defs>
</svg>
